<?xml version="1.0" standalone="no"?>
<!DOCTYPE svg PUBLIC "-//W3C//DTD SVG 20010904//EN"
 "http://www.w3.org/TR/2001/REC-SVG-20010904/DTD/svg10.dtd">
<svg version="1.0" xmlns="http://www.w3.org/2000/svg"
 width="267.000000pt" height="349.000000pt" viewBox="0 0 267.000000 349.000000"
 preserveAspectRatio="xMidYMid meet">

<g transform="translate(0.000000,349.000000) scale(0.100000,-0.100000)"
fill="#000000" stroke="none">
<path d="M991 3410 c-229 -12 -294 -22 -337 -55 -47 -36 -123 -146 -190 -277
-51 -101 -57 -109 -82 -106 -25 3 -27 7 -32 58 l-5 55 -81 3 c-76 3 -84 1
-113 -24 -24 -20 -31 -34 -31 -60 0 -30 5 -37 33 -49 17 -7 70 -16 117 -20 47
-4 89 -10 93 -12 5 -3 -29 -30 -75 -60 -46 -30 -104 -75 -129 -100 -79 -76
-84 -115 -74 -612 l7 -384 24 -24 c22 -22 29 -23 174 -23 85 0 160 5 171 10
26 15 49 62 49 105 l0 35 789 0 788 0 5 -52 c4 -40 11 -57 32 -75 26 -22 35
-23 177 -23 83 0 158 4 168 10 40 21 43 53 44 482 2 324 -1 423 -12 460 -17
59 -67 111 -184 188 l-88 58 53 7 c143 18 179 27 194 50 17 26 8 60 -26 90
-16 15 -40 21 -96 23 -82 5 -104 -5 -104 -44 0 -13 -13 -38 -28 -55 l-29 -32
-31 67 c-48 102 -135 246 -181 298 -23 26 -56 51 -74 57 -84 28 -616 46 -916
31z m704 -80 c184 -10 201 -12 223 -32 32 -31 81 -106 142 -220 l52 -98 -811
0 -811 0 36 73 c46 91 126 216 157 245 21 20 38 23 188 31 237 12 593 12 824
1z m-1280 -686 c110 -25 224 -50 253 -56 29 -6 49 -14 45 -18 -4 -4 -56 -28
-114 -53 l-105 -47 -119 15 c-96 12 -165 32 -165 48 0 1 -13 40 -29 85 l-30
83 32 -6 c18 -4 122 -27 232 -51z m2025 32 c0 -25 -43 -130 -62 -152 -15 -17
-42 -24 -142 -37 l-123 -17 -104 46 c-57 26 -107 50 -111 53 -8 7 468 118 515
120 17 1 27 -4 27 -13z m-567 -142 c56 -43 117 -130 117 -165 0 -30 -35 -81
-128 -189 -108 -126 -78 -119 -555 -120 -438 0 -449 1 -506 53 -35 32 -169
202 -182 231 -10 20 -8 32 10 70 30 60 121 143 164 149 17 2 257 5 533 5 l501
2 46 -36z m-1425 -336 c56 -11 105 -24 107 -29 3 -4 -9 -6 -27 -3 -98 12 -218
24 -255 24 -53 0 -70 -22 -79 -102 -10 -89 -28 -86 -22 3 7 87 23 127 52 132
34 6 114 -3 224 -25z m1946 9 c9 -7 21 -30 26 -52 13 -54 12 -145 0 -145 -5 0
-10 17 -10 38 -1 52 -16 112 -33 130 -13 12 -32 13 -134 3 -65 -7 -138 -14
-163 -18 -80 -10 -33 10 77 33 122 26 211 30 237 11z"/>
<path d="M247 2597 c19 -52 21 -53 138 -62 66 -6 88 -4 124 12 l44 19 -149 34
c-82 18 -155 35 -161 38 -9 3 -8 -9 4 -41z"/>
<path d="M2206 2601 l-158 -35 43 -19 c36 -16 58 -18 124 -13 115 10 121 12
140 58 9 22 15 42 13 43 -2 1 -74 -14 -162 -34z"/>
<path d="M753 2508 c-52 -43 -103 -110 -103 -135 0 -38 180 -258 223 -273 42
-14 813 -14 856 1 21 8 59 44 115 113 115 140 120 149 105 178 -23 44 -64 92
-103 120 l-39 28 -507 0 -508 0 -39 -32z"/>
<path d="M310 1549 c-167 -32 -267 -171 -226 -312 28 -97 93 -139 292 -188
172 -43 217 -85 164 -152 -51 -64 -227 -60 -363 9 -27 13 -51 23 -52 22 -9 -9
-55 -123 -55 -135 0 -8 29 -27 63 -44 180 -84 413 -74 530 22 56 46 81 101 82
179 0 142 -71 198 -328 259 -97 23 -134 43 -148 78 -12 31 10 75 46 91 61 28
261 2 313 -40 16 -14 16 -15 50 74 l30 77 -47 19 c-101 44 -248 61 -351 41z"/>
<path d="M1194 1545 c-205 -45 -344 -214 -344 -420 0 -249 198 -435 463 -435
117 0 241 47 308 116 l33 34 -59 60 -59 60 -31 -30 c-77 -74 -214 -93 -313
-44 -99 49 -148 142 -140 265 11 155 128 250 291 237 70 -6 117 -26 163 -70
l31 -29 54 56 c30 31 56 61 58 67 6 18 -82 88 -138 109 -107 40 -209 48 -317
24z"/>
<path d="M1690 1537 c0 -1 80 -189 179 -417 l179 -415 103 0 103 0 178 415
c98 228 178 416 178 417 0 2 -44 3 -98 3 l-98 0 -43 -102 c-121 -291 -215
-498 -221 -491 -4 4 -63 140 -131 300 l-124 293 -102 0 c-57 0 -103 -1 -103
-3z"/>
<path d="M235 561 c-8 -15 3 -31 21 -31 9 0 14 7 12 17 -4 20 -24 28 -33 14z"/>
<path d="M92 544 c-39 -27 -26 -64 33 -94 52 -26 59 -37 32 -54 -12 -7 -26 -7
-49 2 -40 15 -58 0 -27 -22 32 -22 85 -20 109 4 36 36 19 71 -45 93 -43 15
-58 43 -29 54 9 3 29 2 45 -4 37 -14 48 10 13 26 -34 15 -55 14 -82 -5z"/>
<path d="M1250 527 c0 -32 -1 -33 -34 -29 -26 3 -37 -1 -50 -19 -20 -29 -21
-68 -1 -97 13 -18 25 -21 65 -21 l50 2 0 98 c0 81 -3 99 -15 99 -10 0 -15 -10
-15 -33z m-12 -59 c18 -18 15 -66 -5 -77 -26 -14 -53 5 -53 37 0 44 32 66 58
40z"/>
<path d="M1583 536 c-39 -33 -49 -73 -29 -119 22 -53 77 -73 127 -46 31 16 14
27 -34 22 -48 -6 -63 5 -73 54 -4 23 0 36 19 59 23 27 28 28 56 17 20 -7 33
-8 37 -1 9 14 -7 27 -42 34 -24 4 -37 0 -61 -20z"/>
<path d="M2380 460 c0 -60 4 -100 10 -100 6 0 10 40 10 100 0 60 -4 100 -10
100 -6 0 -10 -40 -10 -100z"/>
<path d="M440 521 c0 -11 -6 -22 -12 -25 -10 -5 -10 -7 0 -12 6 -3 12 -23 12
-45 0 -22 5 -49 10 -60 13 -22 50 -26 50 -4 0 8 -7 15 -15 15 -11 0 -15 12
-15 45 0 33 4 45 15 45 8 0 15 5 15 10 0 6 -7 10 -15 10 -8 0 -15 9 -15 20 0
11 -7 20 -15 20 -8 0 -15 -9 -15 -19z"/>
<path d="M2040 521 c0 -11 -6 -22 -12 -24 -10 -4 -10 -7 -1 -14 6 -5 13 -33
15 -63 3 -51 5 -55 27 -55 13 0 26 6 29 13 2 6 -3 12 -12 12 -12 0 -16 11 -16
45 0 33 4 45 15 45 8 0 15 5 15 10 0 6 -7 10 -15 10 -8 0 -15 9 -15 20 0 11
-7 20 -15 20 -8 0 -15 -9 -15 -19z"/>
<path d="M322 499 c-18 -7 -23 -15 -20 -36 2 -22 11 -30 38 -39 19 -6 36 -16
37 -21 6 -16 -26 -24 -47 -13 -13 7 -21 7 -26 -1 -17 -28 64 -40 90 -13 19 18
19 20 6 44 -5 10 -23 21 -40 25 -39 9 -41 38 -2 33 15 -2 28 2 29 7 4 15 -39
23 -65 14z"/>
<path d="M240 430 c0 -40 4 -70 10 -70 6 0 10 30 10 70 0 40 -4 70 -10 70 -6
0 -10 -30 -10 -70z"/>
<path d="M546 478 c-35 -50 -8 -118 47 -118 38 0 65 14 48 25 -7 4 -19 4 -27
1 -17 -7 -54 10 -54 24 0 5 21 10 48 12 44 3 47 5 44 28 -6 37 -21 50 -58 50
-23 0 -38 -7 -48 -22z m73 -11 c14 -18 4 -27 -31 -27 -26 0 -37 17 -21 33 11
12 40 8 52 -6z"/>
<path d="M690 430 c0 -40 4 -70 10 -70 6 0 10 15 10 33 0 46 10 75 27 81 27
11 43 -14 43 -65 0 -37 4 -49 15 -49 11 0 15 13 15 54 0 41 4 55 16 60 28 11
44 -13 44 -65 0 -37 4 -49 15 -49 11 0 15 12 15 44 0 68 -14 96 -48 96 -15 0
-33 -5 -39 -11 -8 -8 -13 -8 -17 0 -9 15 -59 14 -74 -1 -9 -9 -12 -9 -12 0 0
7 -4 12 -10 12 -6 0 -10 -30 -10 -70z"/>
<path d="M940 490 c-16 -11 -12 -12 39 -14 50 -2 49 -22 -1 -32 -39 -8 -43
-12 -46 -41 -3 -28 0 -33 24 -39 15 -4 35 -2 46 5 11 7 18 7 18 1 0 -5 7 -10
15 -10 22 0 21 103 -1 124 -17 18 -71 21 -94 6z m80 -69 c0 -12 -28 -41 -39
-41 -5 0 -14 6 -20 14 -10 11 -8 17 6 25 23 13 53 14 53 2z"/>
<path d="M1332 487 c-28 -33 -22 -97 12 -119 28 -19 95 -1 81 21 -5 9 -10 9
-21 0 -11 -9 -21 -9 -39 -1 -40 18 -29 32 25 32 55 0 64 15 34 58 -17 25 -74
31 -92 9z m66 -19 c20 -20 14 -28 -23 -28 -19 0 -35 4 -35 8 0 12 22 32 35 32
6 0 16 -5 23 -12z"/>
<path d="M1732 487 c-28 -33 -22 -97 12 -119 20 -14 63 -8 79 10 23 25 22 85
-1 105 -22 20 -75 22 -90 4z m79 -33 c11 -30 -10 -74 -36 -74 -17 0 -35 30
-35 57 0 46 55 59 71 17z"/>
<path d="M1880 430 c0 -40 4 -70 10 -70 6 0 10 19 10 43 0 97 62 104 68 8 2
-36 7 -51 18 -51 10 0 14 12 14 44 0 68 -14 96 -48 96 -15 0 -33 -5 -40 -12
-9 -9 -12 -9 -12 0 0 7 -4 12 -10 12 -6 0 -10 -30 -10 -70z"/>
<path d="M2130 430 c0 -56 3 -70 15 -70 11 0 15 12 15 49 0 39 4 51 23 64 27
18 14 36 -13 19 -12 -7 -20 -8 -20 -2 0 5 -4 10 -10 10 -6 0 -10 -30 -10 -70z"/>
<path d="M2224 469 c-27 -53 2 -109 55 -109 37 0 61 28 61 73 0 45 -22 67 -65
67 -28 0 -37 -6 -51 -31z m86 -10 c7 -11 9 -31 6 -44 -11 -42 -61 -42 -72 0
-13 52 43 89 66 44z"/>
<path d="M2456 484 c-23 -22 -21 -87 3 -108 22 -20 82 -18 89 3 4 11 -2 12
-23 7 -26 -7 -55 6 -55 25 0 5 20 9 45 9 41 0 45 2 45 24 0 33 -25 56 -60 56
-16 0 -36 -7 -44 -16z m72 -26 c3 -14 -3 -18 -27 -18 -29 0 -41 17 -24 34 13
13 48 1 51 -16z"/>
<path d="M690 227 c0 -32 -1 -33 -34 -29 -45 5 -72 -30 -62 -82 9 -45 23 -56
79 -54 l47 1 0 98 c0 81 -3 99 -15 99 -10 0 -15 -10 -15 -33z m-12 -59 c16
-16 15 -63 -2 -77 -33 -27 -69 26 -46 68 12 24 30 27 48 9z"/>
<path d="M981 248 c1 -31 68 -183 80 -186 9 -1 25 29 47 94 19 52 31 98 29
101 -13 12 -27 -12 -48 -77 -13 -39 -26 -67 -30 -63 -3 5 -14 33 -24 63 -18
57 -31 80 -46 80 -5 0 -9 -6 -8 -12z"/>
<path d="M1326 244 c-8 -21 -8 -24 4 -24 5 0 14 9 20 20 8 16 8 20 -4 20 -7 0
-17 -7 -20 -16z"/>
<path d="M1680 160 c0 -82 3 -100 15 -100 12 0 15 18 15 100 0 82 -3 100 -15
100 -12 0 -15 -18 -15 -100z"/>
<path d="M792 199 c-43 -16 -52 -88 -16 -124 20 -19 85 -17 92 4 3 10 -3 12
-26 7 -21 -5 -34 -2 -48 11 -17 17 -16 18 34 21 57 3 66 18 37 59 -18 25 -43
33 -73 22z m42 -25 c30 -12 18 -34 -19 -34 -37 0 -43 8 -23 28 14 14 20 14 42
6z"/>
<path d="M1187 189 c-34 -26 -38 -86 -8 -113 22 -20 82 -18 89 3 3 10 -3 12
-26 7 -21 -5 -34 -2 -48 11 -17 17 -16 18 34 21 46 3 52 5 52 26 0 52 -52 78
-93 45z m61 -31 c3 -15 -4 -18 -33 -18 -33 0 -35 2 -25 21 14 24 53 22 58 -3z"/>
<path d="M1419 198 c-25 -8 -49 -44 -49 -72 0 -7 9 -25 21 -40 15 -19 30 -26
54 -26 35 0 51 12 40 30 -5 8 -11 7 -20 0 -32 -27 -74 16 -60 59 8 25 41 36
60 21 9 -7 15 -8 20 0 15 25 -24 42 -66 28z"/>
<path d="M1923 200 c-16 -6 -23 -18 -23 -35 0 -20 8 -29 35 -41 19 -8 35 -18
35 -24 0 -16 -19 -21 -39 -10 -14 7 -22 7 -27 -1 -15 -25 61 -40 84 -17 26 26
14 55 -29 72 -45 18 -44 41 2 32 37 -7 48 11 14 24 -14 6 -27 10 -28 9 -1 0
-12 -4 -24 -9z"/>
<path d="M1319 183 c-1 -28 -1 -86 0 -105 0 -10 6 -18 11 -18 6 0 10 30 10 70
0 40 -4 70 -10 70 -5 0 -10 -8 -11 -17z"/>
<path d="M1520 158 c0 -24 3 -53 6 -66 8 -27 49 -40 76 -23 11 7 18 7 18 1 0
-5 5 -10 10 -10 6 0 10 30 10 71 0 52 -3 70 -12 66 -7 -2 -14 -17 -14 -33 -3
-64 -5 -72 -20 -78 -28 -11 -44 13 -44 65 0 37 -4 49 -15 49 -11 0 -15 -11
-15 -42z"/>
<path d="M1756 178 c-36 -51 -8 -118 48 -118 19 0 40 8 49 18 23 25 22 85 -1
105 -27 25 -78 22 -96 -5z m73 -12 c17 -20 10 -67 -11 -79 -23 -15 -48 8 -48
42 0 45 35 66 59 37z"/>
</g>
</svg>
